<svg width="46" height="46" viewBox="0 0 46 46" fill="none" xmlns="http://www.w3.org/2000/svg">
<g clip-path="url(#clip0)">
<path d="M29.7083 10.5417C31.8167 10.5417 33.5417 8.81667 33.5417 6.70833C33.5417 4.6 31.8167 2.875 29.7083 2.875C27.6 2.875 25.875 4.6 25.875 6.70833C25.875 8.81667 27.6 10.5417 29.7083 10.5417ZM9.58333 23C4.21667 23 0 27.2167 0 32.5833C0 37.95 4.21667 42.1667 9.58333 42.1667C14.95 42.1667 19.1667 37.95 19.1667 32.5833C19.1667 27.2167 14.95 23 9.58333 23ZM9.58333 39.2917C5.94167 39.2917 2.875 36.225 2.875 32.5833C2.875 28.9417 5.94167 25.875 9.58333 25.875C13.225 25.875 16.2917 28.9417 16.2917 32.5833C16.2917 36.225 13.225 39.2917 9.58333 39.2917ZM20.7 20.125L25.3 15.525L26.8333 17.0583C28.865 19.09 31.395 20.47 34.4233 20.93C35.5733 21.1025 36.6083 20.1825 36.6083 19.0133C36.6083 18.0742 35.8992 17.2692 34.9792 17.1158C32.8517 16.7708 31.1075 15.755 29.7083 14.375L26.0667 10.7333C25.1083 9.96667 24.15 9.58333 23 9.58333C21.85 9.58333 20.8917 9.96667 20.3167 10.7333L14.95 16.1C14.1833 16.8667 13.8 17.825 13.8 18.7833C13.8 19.9333 14.1833 20.8917 14.95 21.4667L21.0833 26.8333V34.5C21.0833 35.5542 21.9458 36.4167 23 36.4167C24.0542 36.4167 24.9167 35.5542 24.9167 34.5V26.0667C24.9167 25.07 24.5333 24.1308 23.8625 23.4217L20.7 20.125ZM36.4167 23C31.05 23 26.8333 27.2167 26.8333 32.5833C26.8333 37.95 31.05 42.1667 36.4167 42.1667C41.7833 42.1667 46 37.95 46 32.5833C46 27.2167 41.7833 23 36.4167 23ZM36.4167 39.2917C32.775 39.2917 29.7083 36.225 29.7083 32.5833C29.7083 28.9417 32.775 25.875 36.4167 25.875C40.0583 25.875 43.125 28.9417 43.125 32.5833C43.125 36.225 40.0583 39.2917 36.4167 39.2917Z" fill="#F3412F"/>
</g>
<defs>
<clipPath id="clip0">
<rect width="46" height="46" fill="white"/>
</clipPath>
</defs>
</svg>
