<svg width="64" height="64" viewBox="0 0 64 64" fill="none" xmlns="http://www.w3.org/2000/svg">
<path d="M18.2016 29.1992C13.8016 29.1992 9.80156 27.5992 6.60156 24.5992L8.00156 23.1992C11.2016 26.1992 15.4016 27.5992 19.6016 27.1992C21.4016 25.9992 23.4016 24.9992 25.6016 24.5992L26.0016 26.5992C24.0016 26.9992 22.0016 27.9992 20.4016 28.9992L20.2016 29.1992H18.2016Z" fill="#BA1503"/>
<path d="M30.2019 52.2C27.0019 52.2 24.0019 50.8 22.2019 48.2C17.2019 48.2 12.8019 44.4 12.2019 39.4V38.6C7.60191 36.8 4.80191 32.2 5.20191 27.4C5.40191 26 5.60191 24.8 6.20191 23.6C6.40191 23.4 6.60191 23.2 7.00191 23C7.40191 23 7.60191 23 7.80191 23.2C11.0019 26.2 15.2019 27.6 19.4019 27.2C21.2019 26 23.2019 25 25.4019 24.6C26.0019 24.4 26.4019 24.8 26.6019 25.4C26.8019 26 26.4019 26.4 25.8019 26.6C23.8019 27 21.8019 28 20.2019 29C20.0019 29 20.0019 29.2 19.8019 29.2H18.0019C14.2019 29.2 10.4019 27.8 7.40191 25.4C7.20191 26 7.00191 26.6 7.00191 27.4C6.60191 31.6 9.20191 35.6 13.2019 36.8C13.6019 37 14.0019 37.4 14.0019 37.8V39.2C14.4019 43.4 18.0019 46.4 22.4019 46.2C22.8019 46.2 23.0019 46.4 23.2019 46.6C24.6019 48.8 27.2019 50.2 29.8019 50.2C33.8019 50.2 37.2019 47.2 37.8019 43C37.8019 42.8 38.0019 42.4 38.2019 42.4C38.4019 42.4 38.6019 42.2 39.0019 42.2H40.0019C42.0019 42.2 43.8019 41.4 45.2019 40C46.8019 38.4 47.6019 36.2 47.4019 33.8C47.4019 33.2 47.8019 32.8 48.4019 32.8C49.0019 32.8 49.4019 33.2 49.4019 33.8C49.6019 36.6 48.6019 39.4 46.6019 41.4C44.8019 43.2 42.4019 44.4 40.0019 44.4H39.8019C39.0019 48.8 35.0019 52.2 30.2019 52.2ZM50.0019 25C47.8019 25 46.0019 22.8 46.0019 20C46.0019 17.2 47.8019 15 50.0019 15C52.2019 15 54.0019 17.2 54.0019 20C54.0019 22.8 52.2019 25 50.0019 25ZM50.0019 17C49.0019 17 48.0019 18.4 48.0019 20C48.0019 21.6 49.0019 23 50.0019 23C51.0019 23 52.0019 21.6 52.0019 20C52.0019 18.4 51.0019 17 50.0019 17Z" fill="#BA1503"/>
<path d="M48.6 34.7997C48 34.7997 47.6 34.3997 47.6 33.7997L47.2 23.5997C46.4 22.5997 46 21.3997 46 19.9997C46 18.7997 46.4 17.5997 47 16.5997C47.4 16.1997 48 15.9997 48.4 16.3997C48.8 16.7997 49 17.3997 48.6 17.7997C48.2 18.3997 48 19.1997 48 19.9997C48 20.9997 48.4 21.7997 48.8 22.3997C49 22.5997 49 22.7997 49 22.9997L49.4 33.5997C49.6 34.1997 49.2 34.7997 48.6 34.7997Z" fill="#BA1503"/>
<path d="M15.9985 32.7999C15.7985 32.7999 15.5985 32.7999 15.3985 32.5999C14.9985 32.1999 14.7985 31.5999 15.1985 31.1999C19.3985 25.9999 25.7985 23.1999 32.5985 24.1999C33.7985 16.5999 39.1985 10.1999 46.5985 7.79985L47.9985 7.59985C50.7985 7.59985 53.1985 9.79985 53.1985 12.5999C53.1985 14.3999 52.1985 16.1999 50.5985 16.9999C50.3985 16.9999 50.3985 17.1999 50.1985 17.1999C49.9985 17.1999 49.5985 17.1999 49.3985 17.3999C48.9985 17.7999 48.3985 17.5999 47.9985 17.1999C47.5985 16.5999 47.5985 15.9999 47.9985 15.5999C48.3985 15.1999 48.9985 14.9999 49.5985 14.9999C50.3985 14.3999 50.9985 13.3999 50.9985 12.3999C50.9985 10.7999 49.5985 9.39985 47.9985 9.39985L46.9985 9.59985C40.1985 11.7999 34.9985 17.9999 34.1985 25.3999C34.1985 25.5999 33.9985 25.9999 33.7985 25.9999C33.5985 25.9999 33.1985 26.1999 32.9985 26.1999C31.9985 25.9999 30.9985 25.9999 29.9985 25.9999C24.7985 25.9999 19.9985 28.3999 16.5985 32.3999C16.3985 32.5999 16.1985 32.7999 15.9985 32.7999Z" fill="#BA1503"/>
<path d="M51.0008 17C50.8008 17 50.6008 17 50.6008 16.8C50.2008 16.8 50.0008 16.4 50.0008 16V15.2C50.0008 15 50.0008 14.8 50.2008 14.6C50.6008 14.2 51.0008 13.6 51.0008 12.6C51.0008 12.2 51.0008 11.8 50.8008 11.4C50.6008 11.2 50.8008 10.8 50.8008 10.4C51.0008 10.2 51.4008 10 51.6008 10H52.0008C55.4008 10 58.0008 12.6 58.0008 16C58.0008 16.4 57.8008 16.8 57.4008 17C57.0008 17.2 56.6008 17.2 56.4008 17C55.0008 16 53.0008 16 51.6008 17H51.0008ZM54.0008 14C54.6008 14 55.0008 14 55.6008 14.2C55.0008 13.2 54.2008 12.4 53.0008 12.2V12.6C53.0008 13.2 53.0008 13.8 52.8008 14.2C53.2008 14 53.6008 14 54.0008 14ZM32.6008 41.4C31.6008 41.4 30.6008 41.2 29.6008 41L22.0008 39C20.6008 38.6 19.8008 37.4 19.8008 36.2C19.8008 34.8 20.6008 33.6 22.0008 33.4H22.2008C24.0008 33.4 25.6008 32.6 27.0008 31.6L29.0008 30C31.4008 28 34.6008 27 37.6008 26.8C40.2008 26.8 42.6008 28.4 43.4008 31C44.0008 32.8 43.6008 34.8 42.6008 36.4C40.2008 39.4 36.6008 41.4 32.6008 41.4ZM22.4008 35.2C21.8008 35.4 21.8008 36 21.8008 36.2C21.8008 36.4 21.8008 37 22.6008 37.2L30.2008 39.2C34.2008 40.2 38.6008 38.6 41.0008 35.2C41.8008 34.2 42.0008 32.8 41.6008 31.6C41.0008 30 39.6008 28.8 37.8008 28.8C35.0008 28.8 32.4008 29.8 30.4008 31.4L28.4008 33C26.6008 34.2 24.6008 35 22.4008 35.2ZM30.8008 59.8C30.4008 59.8 30.0008 59.6 29.8008 59.2C29.6008 58.6 29.8008 58.2 30.4008 57.8L34.0008 56.2L33.2008 51.2C33.2008 50.6 33.4008 50.2 34.0008 50C34.6008 50 35.0008 50.2 35.2008 50.8L36.0008 56.6C36.0008 57 35.8008 57.4 35.4008 57.6L31.2008 59.4C31.0008 59.8 30.8008 59.8 30.8008 59.8Z" fill="#BA1503"/>
<path d="M26.0003 59.8C25.6003 59.8 25.2003 59.6 25.0003 59.2C24.8003 58.6 25.0003 58.2 25.4003 57.8L28.8003 56.2L29.0003 51C29.0003 50.4 29.6003 50 30.0003 50C30.6003 50 31.0003 50.4 31.0003 51L30.8003 56.8C30.8003 57.2 30.6003 57.6 30.2003 57.6L26.2003 59.4C26.2003 59.8 26.2003 59.8 26.0003 59.8ZM39.0003 59.8H38.6003L34.6003 58C34.2003 57.8 33.8003 57.2 34.2003 56.6C34.6003 56 35.0003 55.8 35.6003 56.2L39.6003 58C40.0003 58.2 40.4003 58.8 40.0003 59.4C39.8003 59.6 39.4003 59.8 39.0003 59.8Z" fill="#BA1503"/>
<path d="M31.9985 59.4005C31.7985 59.4005 31.5985 59.4005 31.3985 59.2005L29.3985 57.8005C28.9985 57.4005 28.7985 56.8005 29.1985 56.4005C29.5985 56.0005 30.1985 55.8005 30.5985 56.2005L32.5985 57.6005C32.9985 58.0005 33.1985 58.6005 32.7985 59.0005C32.5985 59.2005 32.3985 59.4005 31.9985 59.4005Z" fill="#BA1503"/>
<path d="M48 14C48.5523 14 49 13.5523 49 13C49 12.4477 48.5523 12 48 12C47.4477 12 47 12.4477 47 13C47 13.5523 47.4477 14 48 14Z" fill="#BA1503"/>
<path d="M51.5993 11.7992C51.1993 11.7992 50.7993 11.5992 50.5993 11.1992C50.1993 10.1992 48.9993 9.39922 47.7993 9.39922L46.7993 9.59922C45.9993 9.99922 44.5993 10.5992 43.1993 11.3992C42.9993 11.5992 42.5993 11.5992 42.1993 11.3992C41.9993 11.1992 41.5993 10.9992 41.5993 10.5992L40.7993 6.99922C40.5993 5.99922 40.5993 4.99922 41.1993 4.19922C41.5993 3.39922 42.1993 2.99922 42.9993 2.79922C43.7993 2.59922 44.5993 2.79922 45.1993 3.39922C45.3993 3.59922 45.7993 3.59922 45.9993 3.39922L46.3993 2.99922C46.9993 2.39922 47.5993 2.19922 48.3993 2.19922C49.1993 2.19922 49.7993 2.59922 50.1993 3.19922L50.3993 3.59922C50.5993 3.99922 50.7993 3.99922 51.1993 3.79922C51.7993 3.39922 52.5993 3.39922 53.3993 3.59922C53.9993 3.79922 54.5993 4.39922 54.9993 4.99922C55.3993 5.99922 55.3993 7.19922 54.7993 8.19922L52.7993 11.3992C52.3993 11.7992 51.9993 11.7992 51.5993 11.7992ZM47.9993 7.59922C49.3993 7.59922 50.7993 8.19922 51.7993 9.19922L52.9993 7.39922C53.1993 6.99922 53.1993 6.39922 53.1993 5.99922C53.1993 5.79922 52.9993 5.79922 52.7993 5.59922H52.3993C51.1993 6.39922 49.7993 5.99922 48.9993 4.99922L48.7993 4.59922C48.5993 4.39922 48.3993 4.39922 48.3993 4.39922C48.3993 4.39922 48.1993 4.39922 47.9993 4.59922L47.5993 4.99922C46.5993 5.99922 45.1993 5.99922 44.1993 5.19922C43.9993 4.99922 43.7993 4.99922 43.7993 4.99922C43.7993 4.99922 43.5993 4.99922 43.3993 5.39922C43.1993 5.99922 43.1993 6.39922 43.1993 6.99922L43.5993 9.19922C44.5993 8.59922 45.5993 8.19922 46.5993 7.79922L47.9993 7.59922C47.7993 7.59922 47.7993 7.59922 47.9993 7.59922Z" fill="#BA1503"/>
</svg>
