<svg width="55" height="55" viewBox="0 0 55 55" fill="none" xmlns="http://www.w3.org/2000/svg">
<path d="M21.9265 24.4861C21.9265 24.4861 24.4713 37.0701 18.7283 43.1435M18.3273 45.3283C18.2207 45.996 18.0287 46.6809 17.7851 47.3525C17.8175 47.1585 17.8669 46.9549 17.9317 46.7437C18.0856 46.2358 18.2169 45.7659 18.3273 45.3283ZM23.2582 48.8363C20.0241 48.646 20.9754 43.8901 20.9754 43.8901C23.2582 46.7437 23.2582 48.8363 23.2582 48.8363ZM17.1706 24.8666C17.1706 24.8666 14.8934 26.0537 13.967 23.902C14.123 24.4538 14.3323 25.0549 14.6119 25.6237C14.1344 24.9274 13.5713 23.7555 13.5903 22.11C13.596 22.1404 13.5999 22.1747 13.6056 22.2109C13.6018 22.1519 13.5979 22.091 13.5942 22.0302C13.5942 22.0301 17.3608 20.8716 17.1706 24.8666ZM27.489 53.1223C27.4757 53.1242 27.4604 53.1261 27.4433 53.128V53.1166C27.4433 53.1166 27.4586 53.1185 27.489 53.1223Z" stroke="#BA1503" stroke-width="1.06641" stroke-miterlimit="10" stroke-linecap="round" stroke-linejoin="round"/>
<path d="M17.7409 28.1006C16.6584 28.0435 15.848 27.4575 15.2449 26.6624C15.0033 26.3447 14.7941 25.9927 14.6152 25.6275M17.1701 24.8666C17.1701 24.8666 14.893 26.0537 13.9666 23.9021C13.9666 23.9001 13.9647 23.8964 13.9647 23.8944C13.784 23.4721 13.6546 22.9224 13.6051 22.2108C13.6014 22.1518 13.5975 22.0909 13.5938 22.0301C13.5937 22.0301 17.3604 20.8716 17.1701 24.8666Z" stroke="#BA1503" stroke-width="1.06641" stroke-miterlimit="10" stroke-linecap="round" stroke-linejoin="round"/>
<path d="M13.9666 23.9021C13.9666 23.9002 13.9646 23.8964 13.9646 23.8945C13.7687 23.2021 13.6603 22.5876 13.6051 22.2109L13.9666 23.9021ZM13.5899 22.1025C13.5652 21.9236 13.5557 21.8229 13.5557 21.8229L13.5899 22.1025ZM18.5113 44.5276C18.4599 44.7787 18.399 45.0431 18.3286 45.3189C18.3743 45.0298 18.4352 44.7653 18.5113 44.5276ZM23.2577 48.8364C20.0236 48.6461 20.9749 43.8902 20.9749 43.8902C23.2577 46.7438 23.2577 48.8364 23.2577 48.8364Z" stroke="#BA1503" stroke-width="1.06641" stroke-miterlimit="10" stroke-linecap="round" stroke-linejoin="round"/>
<path d="M23.258 48.8363C20.024 48.646 20.9752 43.8901 20.9752 43.8901C23.258 46.7437 23.258 48.8363 23.258 48.8363ZM27.5384 53.1166V53.128C27.5213 53.1261 27.506 53.1242 27.4927 53.1223C27.5231 53.1185 27.5384 53.1166 27.5384 53.1166ZM31.7235 48.8363C31.7235 48.8363 31.7235 46.7437 34.0063 43.8901C34.0063 43.8901 34.9576 48.646 31.7235 48.8363ZM37.1967 47.3525C36.9531 46.681 36.7611 45.996 36.6545 45.3283C36.7648 45.7658 36.8961 46.2357 37.0502 46.7437C37.1148 46.9549 37.1643 47.1584 37.1967 47.3525Z" stroke="#BA1503" stroke-width="1.06641" stroke-miterlimit="10" stroke-linecap="round" stroke-linejoin="round"/>
<path d="M13.7464 20.6812C13.6437 21.1891 13.5961 21.6628 13.5904 22.1022V22.1099C13.5961 22.1403 13.6 22.1745 13.6057 22.2107C13.6019 22.1518 13.598 22.0909 13.5943 22.0301C13.5943 22.0301 17.3609 20.8715 17.1707 24.8665C17.1707 24.8665 14.8935 26.0537 13.9671 23.902C14.1231 24.4537 14.3324 25.0548 14.612 25.6236C14.6139 25.6256 14.6139 25.6256 14.6157 25.6274C14.9639 26.1353 15.2531 26.571 15.2455 26.6623C14.5491 35.5045 16.6113 34.7892 17.7414 37.8025C18.5004 39.8266 18.9227 41.1773 18.7287 43.1424C18.6868 43.5705 18.6145 44.0271 18.5118 44.5273C18.4605 44.7784 18.3996 45.0428 18.3292 45.3187C18.3287 45.3214 18.328 45.3242 18.3275 45.3269C18.221 45.995 18.0288 46.6804 17.7851 47.3524C17.1117 51.1819 22.0217 51.785 22.0217 51.785C23.6578 53.421 26.8538 53.187 27.4434 53.1281V53.1167C27.4434 53.1167 27.4587 53.1186 27.4891 53.1224H27.4928C27.5232 53.1186 27.5385 53.1167 27.5385 53.1167V53.1281C28.1282 53.187 31.3241 53.421 32.9602 51.785C32.9602 51.785 37.8702 51.1819 37.1968 47.3524C36.9532 46.6804 36.7609 45.995 36.6544 45.3269C36.6539 45.3242 36.6532 45.3214 36.6527 45.3187C36.5823 45.0428 36.5214 44.7785 36.4701 44.5273C36.3674 44.0269 36.2951 43.5704 36.2532 43.1424C36.0592 41.1773 36.4815 39.8266 37.2405 37.8025C38.3705 34.7891 40.4099 35.5158 39.7136 26.6737C39.7136 26.6737 40.0179 26.1353 40.3661 25.6274C40.368 25.6255 40.368 25.6255 40.3698 25.6236C40.6647 24.9616 40.8587 24.4537 41.0147 23.902C40.0882 26.0535 37.8111 24.8665 37.8111 24.8665C37.6209 20.8716 41.3875 22.0301 41.3875 22.0301C41.3838 22.091 41.3799 22.1518 41.3761 22.2107C41.3818 22.1746 41.3857 22.1404 41.3914 22.1099V22.1022C41.3857 21.6628 41.3381 21.1892 41.2354 20.6812C47.6047 26.398 53.5017 19.9581 53.111 18.0094C52.7203 16.0606 48.8733 14.1118 46.0111 14.2335C43.1487 14.3553 40.855 11.3596 40.855 11.3596C40.855 11.3596 49.2673 9.17188 45.9172 1.32471C45.9172 1.32471 42.7574 7.74521 38.0015 6.22325C33.2456 4.7013 34.387 4.32092 32.1041 4.51116C30.0096 4.68615 27.8371 5.10091 27.4909 5.16751C27.1447 5.10091 24.9722 4.68626 22.8777 4.51116C20.5948 4.32092 21.7362 4.70141 16.9803 6.22325C12.2244 7.7451 9.06462 1.32471 9.06462 1.32471C5.71456 9.17198 14.1268 11.3596 14.1268 11.3596L13.7464 20.6812ZM20.9753 43.89C23.2582 46.7435 23.2582 48.8361 23.2582 48.8361C20.0241 48.6459 20.9753 43.89 20.9753 43.89ZM31.7236 48.8361C31.7236 48.8361 31.7236 46.7435 34.0065 43.89C34.0065 43.89 34.9577 48.6459 31.7236 48.8361Z" stroke="#BA1503" stroke-width="2" stroke-miterlimit="10" stroke-linecap="round" stroke-linejoin="round"/>
<path d="M33.0549 24.4861C33.0549 24.4861 30.5101 37.0701 36.2531 43.1435M40.3695 25.6237C40.6491 25.0549 40.8584 24.4538 41.0144 23.902C40.0879 26.0536 37.8108 24.8666 37.8108 24.8666C37.6206 20.8717 41.3872 22.0301 41.3872 22.0301C41.3835 22.091 41.3796 22.1518 41.3758 22.2108C41.3815 22.1747 41.3854 22.1404 41.3911 22.1099C41.4101 23.7555 40.847 24.9274 40.3695 25.6237Z" stroke="#BA1503" stroke-width="1.06641" stroke-miterlimit="10" stroke-linecap="round" stroke-linejoin="round"/>
<path d="M37.2402 28.1006C38.3227 28.0435 39.1102 27.469 39.7133 26.6738C39.8807 26.3047 40.284 25.9128 40.3658 25.6275M41.3874 22.0301C41.3836 22.091 41.3797 22.1518 41.376 22.2108C41.3266 22.9223 41.1971 23.4721 41.0164 23.8944C41.0164 23.8964 41.0145 23.9001 41.0145 23.9021C40.088 26.0536 37.811 24.8666 37.811 24.8666C37.6207 20.8716 41.3874 22.0301 41.3874 22.0301Z" stroke="#BA1503" stroke-width="1.06641" stroke-miterlimit="10" stroke-linecap="round" stroke-linejoin="round"/>
<path d="M41.0148 23.9021C41.0148 23.9002 41.0167 23.8964 41.0167 23.8945C41.2126 23.2021 41.321 22.5876 41.3762 22.2109L41.0148 23.9021ZM41.4257 21.8229C41.4257 21.8229 41.4161 21.9237 41.3914 22.1025L41.4257 21.8229ZM31.7236 48.8364C31.7236 48.8364 31.7236 46.7438 34.0065 43.8902C34.0065 43.8902 34.9577 48.6461 31.7236 48.8364ZM36.6527 45.3189C36.5823 45.0431 36.5214 44.7787 36.4701 44.5276C36.5461 44.7653 36.607 45.0298 36.6527 45.3189Z" stroke="#BA1503" stroke-width="1.06641" stroke-miterlimit="10" stroke-linecap="round" stroke-linejoin="round"/>
<path d="M14.1445 11.3599C14.1445 11.3599 11.8508 14.3555 8.98844 14.2337C6.12608 14.1119 2.2792 16.0608 1.8885 18.0096C1.49781 19.9584 7.39484 26.3983 13.7641 20.6814M31.7229 48.8364C31.7229 48.8364 31.7229 46.7438 34.0057 43.8902C34.0057 43.8902 34.9569 48.6461 31.7229 48.8364Z" stroke="#BA1503" stroke-width="2" stroke-miterlimit="10" stroke-linecap="round" stroke-linejoin="round"/>
</svg>
