<svg width="64" height="64" viewBox="0 0 64 64" fill="none" xmlns="http://www.w3.org/2000/svg">
<path d="M50.9997 39.17L48.7097 29.8C48.3223 28.1654 47.5054 26.6639 46.3433 25.4508C45.1812 24.2378 43.7162 23.3571 42.0997 22.9C41.9684 21.9936 41.7712 21.0978 41.5097 20.22C41.3697 19.72 41.2097 19.22 41.0297 18.74L40.8597 18.29L40.5297 17.4C38.8507 12.8969 36.1698 8.83454 32.6897 5.52004C32.5023 5.33379 32.2489 5.22925 31.9847 5.22925C31.7205 5.22925 31.467 5.33379 31.2797 5.52004C27.8088 8.83629 25.1381 12.8988 23.4697 17.4L23.1397 18.29L22.9697 18.74C22.7897 19.23 22.6297 19.74 22.4897 20.22C22.2281 21.0978 22.0309 21.9936 21.8997 22.9C20.2832 23.3571 18.8181 24.2378 17.656 25.4508C16.4939 26.6639 15.677 28.1654 15.2897 29.8L12.9997 39.17C12.9618 39.3556 12.9774 39.5481 13.0447 39.7251C13.112 39.9022 13.2281 40.0564 13.3797 40.17C13.553 40.2907 13.7585 40.3569 13.9697 40.36C14.1535 40.3588 14.3334 40.3069 14.4897 40.21L21.9997 35.65V36.53C22.1727 40.3987 23.5737 44.1116 25.9997 47.13L28.2297 49.9L27.5597 51.54C26.8191 53.311 25.6426 54.8659 24.1397 56.06L22.9997 57C22.8385 57.1293 22.7214 57.3054 22.6643 57.5039C22.6073 57.7025 22.6131 57.9139 22.6811 58.109C22.749 58.3041 22.8758 58.4734 23.0438 58.5935C23.2119 58.7137 23.4131 58.7789 23.6197 58.78H25.7697C26.913 58.7653 28.0304 58.4367 28.9997 57.83L31.9997 56L34.9997 57.8C35.9817 58.3979 37.1099 58.7128 38.2597 58.71H40.4097C40.5982 58.6895 40.777 58.6158 40.9252 58.4976C41.0734 58.3793 41.1849 58.2213 41.2468 58.0421C41.3086 57.8628 41.3182 57.6697 41.2745 57.4852C41.2307 57.3007 41.1354 57.1324 40.9997 57L39.8697 56.1C38.3667 54.9059 37.1902 53.351 36.4497 51.58L35.7797 49.94L37.9997 47.13C40.4256 44.1116 41.8267 40.3987 41.9997 36.53V35.65L49.4797 40.26C49.6359 40.3569 49.8158 40.4088 49.9997 40.41C50.2109 40.4069 50.4163 40.3407 50.5897 40.22C50.7557 40.1065 50.8836 39.9456 50.9567 39.7583C51.0298 39.571 51.0448 39.366 50.9997 39.17ZM25.3397 18.09C26.8013 14.1777 29.0705 10.6171 31.9997 7.64004C34.9286 10.6173 37.1978 14.1778 38.6597 18.09L38.9597 18.92C36.6811 19.5557 34.3253 19.872 31.9597 19.86C29.5941 19.872 27.2383 19.5557 24.9597 18.92L25.3397 18.09ZM15.5397 37.28L17.2297 30.28C17.5051 29.1272 18.0517 28.0568 18.8239 27.1576C19.5961 26.2584 20.5717 25.5565 21.6697 25.11C21.6697 25.73 21.6697 26.35 21.6697 26.98L21.9197 33.36L15.5397 37.28ZM39.9997 36.46C39.8608 39.892 38.6273 43.1895 36.4797 45.87L33.8797 49.11C33.7681 49.2484 33.6953 49.4139 33.669 49.5897C33.6426 49.7655 33.6636 49.9451 33.7297 50.11L34.6297 52.29C35.3299 53.9371 36.3496 55.4292 37.6297 56.68C37.0539 56.6064 36.4992 56.4158 35.9997 56.12L32.5197 54C32.3677 53.9123 32.1952 53.8661 32.0197 53.8661C31.8441 53.8661 31.6717 53.9123 31.5197 54L27.9997 56.12C27.5208 56.4078 26.9913 56.6013 26.4397 56.69C27.7198 55.4392 28.7394 53.9471 29.4397 52.3L30.3397 50.12C30.4058 49.9551 30.4267 49.7755 30.4004 49.5997C30.374 49.4239 30.3013 49.2584 30.1897 49.12L27.5897 45.88C25.4148 43.2057 24.1564 39.9035 23.9997 36.46L23.8997 33.9L23.6797 25C23.751 23.5869 23.9893 22.1872 24.3897 20.83C26.8684 21.5111 29.4291 21.8476 31.9997 21.83C34.5702 21.8476 37.1309 21.5111 39.6097 20.83C40.01 22.1872 40.2484 23.5869 40.3197 25L40.0697 33.85L39.9997 36.46ZM42.1197 33.35L42.3397 27C42.3397 26.37 42.3397 25.75 42.3397 25.13C43.4376 25.5765 44.4133 26.2784 45.1855 27.1776C45.9577 28.0768 46.5042 29.1472 46.7797 30.3L48.4697 37.3L42.1197 33.35Z" fill="#BA1503"/>
</svg>
