<svg width="64" height="64" viewBox="0 0 64 64" fill="none" xmlns="http://www.w3.org/2000/svg">
<path d="M32.0001 60.0005C31.7664 60.0009 31.54 59.9195 31.3601 59.7705L29.48 58.2005C27.818 56.8042 26.4832 55.0597 25.57 53.0905C25.4844 52.9149 25.452 52.7182 25.4769 52.5245C25.5018 52.3308 25.5828 52.1486 25.71 52.0005C25.836 51.8523 26.0024 51.7441 26.1889 51.689C26.3753 51.6339 26.5738 51.6344 26.7601 51.6905C27.4082 51.8889 28.0822 51.99 28.7601 51.9905H35.2201C35.8979 51.9903 36.572 51.8891 37.2201 51.6905C37.4063 51.6344 37.6048 51.6339 37.7912 51.689C37.9777 51.7441 38.1441 51.8523 38.2701 52.0005C38.3953 52.1477 38.4751 52.3281 38.5 52.5197C38.5248 52.7114 38.4936 52.9062 38.41 53.0805C37.4965 55.0468 36.1657 56.7905 34.51 58.1905L32.6301 59.7605C32.4542 59.911 32.2315 59.9958 32.0001 60.0005ZM28.3701 54.0005C29.0308 55.0033 29.8362 55.903 30.7601 56.6705L32.0001 57.6705L33.2401 56.6705C34.1606 55.9025 34.9625 55.0028 35.62 54.0005H28.3701Z" fill="#BA1503"/>
<path d="M35.23 54.0005H28.77C27.8929 53.999 27.0206 53.871 26.18 53.6205C24.7985 53.2059 23.5368 52.4653 22.5013 51.4612C21.4658 50.457 20.6868 49.2187 20.23 47.8505L17.56 39.8505C17.1898 38.731 17.0007 37.5596 17 36.3805V30.0005C16.9963 28.5377 17.2864 27.0891 17.8533 25.7406C18.4202 24.3921 19.2522 23.1712 20.3 22.1505C20.53 21.9305 20.75 21.7205 20.99 21.5305C21.0118 21.5021 21.039 21.4783 21.07 21.4605C22.734 20.1011 24.7619 19.2628 26.9 19.0505C27.27 19.0505 27.63 19.0005 28 19.0005H36C36.37 19.0005 36.73 19.0005 37.09 19.0505C37.4731 19.0895 37.8536 19.1496 38.23 19.2305C38.4697 19.2741 38.7067 19.3308 38.94 19.4005L39.1 19.4505C39.3113 19.502 39.5185 19.5689 39.72 19.6505L40.02 19.7605C40.2255 19.8379 40.4258 19.9281 40.62 20.0305C40.9653 20.1721 41.2996 20.3392 41.62 20.5305C41.7949 20.6237 41.9621 20.7307 42.12 20.8505C42.4165 21.0385 42.7005 21.2456 42.97 21.4705L43.04 21.5305C43.28 21.7205 43.5 21.9305 43.72 22.1405C44.765 23.1644 45.5937 24.3877 46.1571 25.7379C46.7205 27.088 47.0072 28.5375 47 30.0005V36.3805C47.0004 37.563 46.8114 38.7378 46.44 39.8605L43.79 47.7905C43.2012 49.5965 42.0559 51.1699 40.5183 52.2854C38.9808 53.4008 37.1296 54.0012 35.23 54.0005ZM22.23 23.1305L21.74 23.5805C20.8788 24.4142 20.1928 25.4116 19.7223 26.514C19.2518 27.6165 19.0062 28.8018 19 30.0005V36.3805C18.9965 37.346 19.1519 38.3055 19.46 39.2205L22.11 47.1505C22.4589 48.2286 23.0644 49.206 23.8743 49.9985C24.6843 50.7911 25.6746 51.3751 26.76 51.7005C27.4082 51.8989 28.0822 52 28.76 52.0005H35.22C35.8979 52.0003 36.572 51.8992 37.22 51.7005C38.2971 51.3795 39.281 50.8039 40.0886 50.0224C40.8963 49.2409 41.5039 48.2764 41.86 47.2105L44.53 39.2105C44.8404 38.2992 44.9992 37.3432 45 36.3805V30.0005C45.0004 28.803 44.7618 27.6175 44.2982 26.5133C43.8345 25.4092 43.1552 24.4087 42.3 23.5705L41.82 23.1305L41.72 23.0605C41.4851 22.8619 41.2379 22.6782 40.98 22.5105C40.8608 22.4243 40.7374 22.3442 40.61 22.2705C40.3327 22.1062 40.0455 21.9593 39.75 21.8305C39.607 21.7562 39.4601 21.6894 39.31 21.6305L39.19 21.5805H39.1C38.89 21.5005 38.73 21.4505 38.55 21.4005L38.4 21.3505L37.84 21.2205C37.5333 21.1543 37.2227 21.1075 36.91 21.0805C36.6082 21.0386 36.3045 21.0119 36 21.0005H28C27.6961 21.0019 27.3923 21.0186 27.09 21.0505C25.3176 21.2126 23.6365 21.9102 22.27 23.0505L22.23 23.1305Z" fill="#BA1503"/>
<path d="M25.5 37.0005C26.3284 37.0005 27 36.3289 27 35.5005C27 34.6721 26.3284 34.0005 25.5 34.0005C24.6716 34.0005 24 34.6721 24 35.5005C24 36.3289 24.6716 37.0005 25.5 37.0005Z" fill="#BA1503"/>
<path d="M38.5 37.0005C39.3284 37.0005 40 36.3289 40 35.5005C40 34.6721 39.3284 34.0005 38.5 34.0005C37.6716 34.0005 37 34.6721 37 35.5005C37 36.3289 37.6716 37.0005 38.5 37.0005Z" fill="#BA1503"/>
<path d="M32.0002 49.0005C31.836 48.9997 31.6746 48.9585 31.5302 48.8805L29.3002 47.6905C28.7855 47.409 28.3857 46.9561 28.1702 46.4105C28.0598 46.1162 28.0023 45.8048 28.0002 45.4905C27.9935 45.17 28.0501 44.8514 28.1666 44.5529C28.2832 44.2543 28.4574 43.9816 28.6793 43.7504C28.9013 43.5191 29.1666 43.3339 29.4602 43.2052C29.7537 43.0765 30.0697 43.007 30.3902 43.0005H33.6102C33.9306 43.007 34.2467 43.0765 34.5402 43.2052C34.8338 43.3339 35.0991 43.5191 35.321 43.7504C35.543 43.9816 35.7172 44.2543 35.8337 44.5529C35.9503 44.8514 36.0068 45.17 36.0002 45.4905C35.9995 45.8058 35.9384 46.1181 35.8202 46.4105C35.6162 46.9511 35.2262 47.4014 34.7202 47.6805L32.4702 48.8805C32.3257 48.9585 32.1643 48.9997 32.0002 49.0005ZM30.3902 45.0005C30.2743 45.0155 30.1688 45.0751 30.096 45.1665C30.0232 45.258 29.9888 45.3742 30.0002 45.4905C29.987 45.5565 29.987 45.6245 30.0002 45.6905C30.0447 45.7953 30.1219 45.8829 30.2202 45.9405L31.9602 46.8705L33.7202 45.9305C33.84 45.8933 33.9405 45.8108 34.0002 45.7005C34.034 45.6332 34.0518 45.5591 34.0523 45.4838C34.0528 45.4086 34.0359 45.3342 34.003 45.2665C33.9702 45.1988 33.9221 45.1396 33.8627 45.0935C33.8032 45.0473 33.7339 45.0155 33.6602 45.0005H30.3902ZM43.0002 23.8605C42.7427 23.8595 42.4956 23.7592 42.3102 23.5805L41.8202 23.1305L41.7202 23.0605C41.4852 22.8619 41.2381 22.6782 40.9802 22.5105C40.861 22.4243 40.7375 22.3442 40.6102 22.2705C40.3329 22.1062 40.0456 21.9593 39.7502 21.8305C39.6071 21.7562 39.4602 21.6894 39.3102 21.6305L39.1902 21.5805H39.1002C38.8902 21.5005 38.7302 21.4505 38.5502 21.4005L38.4002 21.3505L37.8402 21.2205C37.5334 21.1543 37.2228 21.1075 36.9102 21.0805C36.6084 21.0386 36.3047 21.0119 36.0002 21.0005H35.1202C34.979 21.0016 34.8391 20.9727 34.7098 20.9158C34.5806 20.8589 34.4648 20.7753 34.3702 20.6705C34.2762 20.5635 34.2062 20.4377 34.1648 20.3014C34.1235 20.1652 34.1116 20.0217 34.1302 19.8805C34.6491 15.5052 36.7548 11.4722 40.0482 8.54545C43.3417 5.61875 47.5942 4.00164 52.0002 4.00048C52.5187 4.00017 53.0171 4.20124 53.3902 4.56131C53.7633 4.92137 53.982 5.41228 54.0002 5.93048C53.9978 6.28923 53.8955 6.64021 53.7047 6.94403C53.514 7.24786 53.2423 7.49249 52.9202 7.65048C50.5256 8.82586 48.4642 10.5834 46.925 12.762C45.3858 14.9407 44.418 17.4708 44.1102 20.1205C44.0378 20.7445 44.001 21.3722 44.0002 22.0005V22.8605C44 23.0568 43.9421 23.2487 43.8336 23.4123C43.7252 23.5759 43.5709 23.7039 43.3902 23.7805C43.2669 23.833 43.1342 23.8602 43.0002 23.8605ZM40.0002 19.7605C40.2056 19.8379 40.406 19.9281 40.6002 20.0305C40.9455 20.1721 41.2797 20.3392 41.6002 20.5305C41.7562 20.6138 41.9065 20.7073 42.0502 20.8105C42.0502 20.5005 42.1002 20.1805 42.1402 19.8805C42.475 16.9544 43.5274 14.1563 45.2039 11.7349C46.8804 9.31343 49.1291 7.34362 51.7502 6.00048C48.0697 6.05722 44.5213 7.38124 41.7033 9.74933C38.8853 12.1174 36.9699 15.3848 36.2802 19.0005L37.0902 19.0505C37.4732 19.0895 37.8538 19.1496 38.2302 19.2305C38.4698 19.274 38.7068 19.3308 38.9402 19.4005L39.1002 19.4505C39.3114 19.502 39.5186 19.5689 39.7202 19.6505L40.0002 19.7605ZM21.0002 23.8605C20.8661 23.8602 20.7335 23.833 20.6102 23.7805C20.4294 23.7039 20.2752 23.5759 20.1667 23.4123C20.0583 23.2487 20.0003 23.0568 20.0002 22.8605V22.0005C19.9993 21.3722 19.9626 20.7445 19.8902 20.1205C19.5836 17.473 18.6172 14.9449 17.0797 12.7679C15.5422 10.5909 13.4827 8.83475 11.0902 7.66048C10.701 7.46804 10.388 7.14998 10.2019 6.75771C10.0158 6.36544 9.96741 5.92188 10.0645 5.4987C10.1617 5.07552 10.3986 4.69745 10.7372 4.42559C11.0757 4.15373 11.496 4.00396 11.9302 4.00048C16.3482 3.98447 20.6178 5.59384 23.926 8.52216C27.2342 11.4505 29.3499 15.4932 29.8702 19.8805C29.8887 20.0217 29.8769 20.1652 29.8355 20.3014C29.7941 20.4377 29.7241 20.5635 29.6302 20.6705C29.5356 20.7753 29.4198 20.8589 29.2905 20.9158C29.1613 20.9727 29.0214 21.0016 28.8802 21.0005H28.0002C27.6962 21.0019 27.3925 21.0186 27.0902 21.0505C25.3178 21.2126 23.6367 21.9102 22.2702 23.0505L22.1802 23.1105L21.6902 23.5605C21.508 23.7465 21.2605 23.8541 21.0002 23.8605ZM12.2502 6.00048C14.8731 7.34237 17.1238 9.31163 18.8022 11.7332C20.4805 14.1547 21.5344 16.9534 21.8702 19.8805C21.8702 20.1905 21.9402 20.4905 21.9602 20.8105C23.4382 19.8287 25.1344 19.2244 26.9002 19.0505L27.7202 19.0005C27.0304 15.3848 25.1151 12.1174 22.2971 9.74933C19.479 7.38124 15.9307 6.05722 12.2502 6.00048Z" fill="#BA1503"/>
<path d="M31.9997 54.0005C31.7344 54.0005 31.4801 53.8951 31.2926 53.7076C31.105 53.52 30.9997 53.2657 30.9997 53.0005V48.0005C30.9997 47.7352 31.105 47.4809 31.2926 47.2933C31.4801 47.1058 31.7344 47.0005 31.9997 47.0005C32.2649 47.0005 32.5192 47.1058 32.7068 47.2933C32.8943 47.4809 32.9997 47.7352 32.9997 48.0005V53.0005C32.9997 53.2657 32.8943 53.52 32.7068 53.7076C32.5192 53.8951 32.2649 54.0005 31.9997 54.0005ZM12.7997 39.2505C10.4129 39.2563 8.1216 38.3139 6.42967 36.6305C6.24693 36.4388 6.14335 36.1852 6.13967 35.9205C6.1389 35.7888 6.16413 35.6584 6.21389 35.5365C6.26366 35.4147 6.33698 35.3039 6.42967 35.2105L20.2897 21.3605C20.4303 21.2217 20.6089 21.1277 20.8029 21.0903C20.9968 21.053 21.1976 21.0739 21.3797 21.1505C21.5623 21.2255 21.7186 21.3529 21.8289 21.5166C21.9393 21.6803 21.9987 21.873 21.9997 22.0705V22.8605C21.9991 22.9928 21.9723 23.1236 21.9208 23.2455C21.8693 23.3674 21.7942 23.4778 21.6997 23.5705C20.8445 24.4087 20.1652 25.4092 19.7015 26.5133C19.2379 27.6174 18.9993 28.8029 18.9997 30.0005V36.3305C18.9997 36.4749 18.9684 36.6176 18.908 36.7488C18.8476 36.88 18.7594 36.9966 18.6497 37.0905C17.0194 38.4846 14.9448 39.2506 12.7997 39.2505ZM8.60966 35.8705C9.82044 36.7768 11.2922 37.2667 12.8047 37.2667C14.3171 37.2667 15.7889 36.7768 16.9997 35.8705V30.0005C16.9968 29.0205 17.128 28.0448 17.3897 27.1005L8.60966 35.8705ZM51.1997 39.2505C49.0546 39.2506 46.9799 38.4846 45.3497 37.0905C45.2399 36.9966 45.1518 36.88 45.0914 36.7488C45.0309 36.6176 44.9997 36.4749 44.9997 36.3305V30.0005C45 28.8029 44.7614 27.6174 44.2978 26.5133C43.8342 25.4092 43.1549 24.4087 42.2997 23.5705C42.2052 23.4778 42.13 23.3674 42.0785 23.2455C42.027 23.1236 42.0002 22.9928 41.9997 22.8605V22.0705C42.0006 21.873 42.0601 21.6803 42.1704 21.5166C42.2807 21.3529 42.437 21.2255 42.6197 21.1505C42.8018 21.0739 43.0025 21.053 43.1965 21.0903C43.3905 21.1277 43.569 21.2217 43.7097 21.3605L57.5697 35.2105C57.6623 35.3039 57.7357 35.4147 57.7854 35.5365C57.8352 35.6584 57.8604 35.7888 57.8597 35.9205C57.856 36.1852 57.7524 36.4388 57.5697 36.6305C55.8777 38.3139 53.5864 39.2563 51.1997 39.2505ZM46.9997 35.8505C48.2104 36.7568 49.6822 37.2467 51.1947 37.2467C52.7071 37.2467 54.1789 36.7568 55.3897 35.8505L46.6097 27.1005C46.8714 28.0448 47.0026 29.0205 46.9997 30.0005V35.8505Z" fill="#BA1503"/>
</svg>
