<svg width="26" height="26" viewBox="0 0 26 26" fill="none" xmlns="http://www.w3.org/2000/svg">
<path fill-rule="evenodd" clip-rule="evenodd" d="M13.0537 0.863037C9.71462 0.863037 9.29557 0.877637 7.98412 0.937319C6.67523 0.997256 5.7818 1.20448 5.00005 1.50852C4.19141 1.82255 3.50546 2.24262 2.82207 2.92627C2.13817 3.60966 1.71809 4.29561 1.40304 5.104C1.09823 5.886 0.890751 6.77969 0.831838 8.08806C0.773181 9.39952 0.757812 9.81882 0.757812 13.1579C0.757812 16.497 0.772669 16.9148 0.832094 18.2262C0.892288 19.5351 1.09951 20.4285 1.40329 21.2103C1.71758 22.0189 2.13766 22.7049 2.8213 23.3883C3.50443 24.0722 4.19039 24.4933 4.99852 24.8073C5.78078 25.1113 6.67446 25.3185 7.98309 25.3785C9.29455 25.4382 9.71334 25.4528 13.0522 25.4528C16.3915 25.4528 16.8093 25.4382 18.1207 25.3785C19.4296 25.3185 20.3241 25.1113 21.1063 24.8073C21.9147 24.4933 22.5996 24.0722 23.2828 23.3883C23.9667 22.7049 24.3867 22.0189 24.7018 21.2105C25.0041 20.4285 25.2115 19.5348 25.273 18.2265C25.3319 16.915 25.3473 16.497 25.3473 13.1579C25.3473 9.81882 25.3319 9.39977 25.273 8.08832C25.2115 6.77943 25.0041 5.886 24.7018 5.10425C24.3867 4.29561 23.9667 3.60966 23.2828 2.92627C22.5989 2.24237 21.915 1.82229 21.1056 1.50852C20.3218 1.20448 19.4278 0.997256 18.1189 0.937319C16.8075 0.877637 16.39 0.863037 13.0499 0.863037H13.0537ZM11.9507 3.07864C12.278 3.07813 12.6433 3.07864 13.0536 3.07864C16.3364 3.07864 16.7255 3.09042 18.0218 3.14934C19.2205 3.20415 19.8712 3.40445 20.3045 3.57274C20.8783 3.79558 21.2874 4.06197 21.7174 4.49229C22.1478 4.92261 22.4141 5.33244 22.6375 5.9062C22.8058 6.33908 23.0063 6.98969 23.0609 8.18844C23.1198 9.48452 23.1326 9.87386 23.1326 13.1551C23.1326 16.4362 23.1198 16.8256 23.0609 18.1217C23.0061 19.3204 22.8058 19.971 22.6375 20.4039C22.4147 20.9777 22.1478 21.3862 21.7174 21.8163C21.2871 22.2466 20.8786 22.513 20.3045 22.7358C19.8717 22.9049 19.2205 23.1047 18.0218 23.1595C16.7257 23.2184 16.3364 23.2312 13.0536 23.2312C9.77066 23.2312 9.38158 23.2184 8.0855 23.1595C6.88675 23.1042 6.23615 22.9039 5.8025 22.7356C5.22874 22.5127 4.81891 22.2463 4.38859 21.816C3.95827 21.3857 3.69188 20.9769 3.46852 20.4029C3.30024 19.97 3.09968 19.3194 3.04512 18.1206C2.9862 16.8246 2.97442 16.4352 2.97442 13.152C2.97442 9.86874 2.9862 9.48145 3.04512 8.18536C3.09993 6.98661 3.30024 6.33601 3.46852 5.90262C3.69137 5.32886 3.95827 4.91903 4.38859 4.48871C4.81891 4.05839 5.22874 3.792 5.8025 3.56864C6.23589 3.39959 6.88675 3.1998 8.0855 3.14472C9.2197 3.0935 9.65924 3.07813 11.9507 3.07557V3.07864ZM19.6166 5.1201C18.802 5.1201 18.1412 5.78019 18.1412 6.59498C18.1412 7.40951 18.802 8.07036 19.6166 8.07036C20.4311 8.07036 21.0919 7.40951 21.0919 6.59498C21.0919 5.78044 20.4311 5.1201 19.6166 5.1201ZM13.0537 6.84394C9.56685 6.84394 6.7398 9.67099 6.7398 13.1579C6.7398 16.6447 9.56685 19.4705 13.0537 19.4705C16.5406 19.4705 19.3666 16.6447 19.3666 13.1579C19.3666 9.67099 16.5406 6.84394 13.0537 6.84394ZM13.0537 9.05958C15.317 9.05958 17.152 10.8943 17.152 13.1579C17.152 15.4211 15.317 17.2562 13.0537 17.2562C10.7901 17.2562 8.95539 15.4211 8.95539 13.1579C8.95539 10.8943 10.7901 9.05958 13.0537 9.05958Z" fill="white"/>
</svg>
