<svg width="59" height="59" viewBox="0 0 59 59" fill="none" xmlns="http://www.w3.org/2000/svg">
<path d="M0.460938 26.4421C0.460938 21.0943 11.4497 11.1574 25.2778 17.6105C42.0191 25.4179 58.5391 21.0943 58.5391 26.4421C58.5391 30.9039 49.4872 34.656 37.1691 35.7797C34.727 36.001 32.155 36.1218 29.5 36.1218C24.4389 36.1218 19.683 35.6876 15.5428 34.9316C6.55453 33.2907 0.460938 30.1001 0.460938 26.4421ZM19.8203 24.1374C19.8203 23.1233 18.3739 22.2936 16.5938 22.2936C14.8136 22.2936 13.3672 23.1233 13.3672 24.1374C13.3672 25.1514 14.8136 25.9811 16.5938 25.9811C18.3739 25.9811 19.8203 25.1505 19.8203 24.1374Z" fill="#B0372B"/>
<path d="M37.1691 35.7793C34.727 36.0006 32.155 36.1213 29.5 36.1213C24.4389 36.1213 19.683 35.6871 15.5428 34.9312C6.55453 33.2903 0.460938 30.0997 0.460938 26.4417V33.8166C0.460938 37.3834 6.25031 40.5002 14.8698 42.1781C19.1658 43.017 24.1623 43.4963 29.5 43.4963C32.2748 43.4963 34.9676 43.3664 37.5111 43.1184C49.6522 41.966 58.5391 38.2407 58.5391 33.8166V26.4417C58.5391 30.9026 49.4872 34.6556 37.1691 35.7793Z" fill="#F3412F"/>
<path d="M16.5938 22.2932C18.3739 22.2932 19.8203 23.1229 19.8203 24.137C19.8203 25.151 18.3739 25.9807 16.5938 25.9807C14.8136 25.9807 13.3672 25.151 13.3672 24.137C13.3672 23.1229 14.8136 22.2932 16.5938 22.2932Z" fill="#E6E9ED"/>
<path d="M7.83594 38.8785C7.5815 38.8785 7.375 38.672 7.375 38.4176V34.7753C7.375 34.5208 7.5815 34.3143 7.83594 34.3143C8.09038 34.3143 8.29688 34.5208 8.29688 34.7753V38.4176C8.29688 38.672 8.09038 38.8785 7.83594 38.8785ZM15.2109 40.8587C14.9565 40.8587 14.75 40.6522 14.75 40.3978V36.6918C14.75 36.4374 14.9565 36.2309 15.2109 36.2309C15.4654 36.2309 15.6719 36.4374 15.6719 36.6918V40.3978C15.6719 40.6531 15.4654 40.8587 15.2109 40.8587ZM22.5859 41.8368C22.3315 41.8368 22.125 41.6303 22.125 41.3759V37.6884C22.125 37.4339 22.3315 37.2274 22.5859 37.2274C22.8404 37.2274 23.0469 37.4339 23.0469 37.6884V41.3759C23.0469 41.6303 22.8404 41.8368 22.5859 41.8368ZM29.9609 42.1143C29.7065 42.1143 29.5 41.9078 29.5 41.6534V37.9659C29.5 37.7114 29.7065 37.5049 29.9609 37.5049C30.2154 37.5049 30.4219 37.7114 30.4219 37.9659V41.6534C30.4219 41.9078 30.2154 42.1143 29.9609 42.1143ZM37.3359 41.7538C37.0815 41.7538 36.875 41.5473 36.875 41.2929V37.6054C36.875 37.351 37.0815 37.1445 37.3359 37.1445C37.5904 37.1445 37.7969 37.351 37.7969 37.6054V41.2929C37.7969 41.5473 37.5904 41.7538 37.3359 41.7538ZM44.7109 40.6845C44.4565 40.6845 44.25 40.478 44.25 40.2235V36.536C44.25 36.2816 44.4565 36.0751 44.7109 36.0751C44.9654 36.0751 45.1719 36.2816 45.1719 36.536V40.2235C45.1719 40.478 44.9654 40.6845 44.7109 40.6845ZM52.0859 38.5181C51.8315 38.5181 51.625 38.3116 51.625 38.0571V34.3696C51.625 34.1152 51.8315 33.9087 52.0859 33.9087C52.3404 33.9087 52.5469 34.1152 52.5469 34.3696V38.0571C52.5469 38.3125 52.3404 38.5181 52.0859 38.5181Z" fill="#F3412F"/>
</svg>
