<svg width="66" height="55" viewBox="0 0 66 55" fill="none" xmlns="http://www.w3.org/2000/svg">
<g opacity="0.3" clip-path="url(#clip0)">
<path fill-rule="evenodd" clip-rule="evenodd" d="M65.2542 8.59002C55.4806 13.3623 50.5939 18.9696 50.5939 25.4121C54.7597 25.8894 58.2044 27.5795 60.9282 30.4826C63.652 33.3858 65.0139 36.7462 65.0139 40.564C65.0139 44.6204 63.6921 48.0405 61.0484 50.8243C58.4047 53.6081 55.0801 55 51.0745 55C46.5883 55 42.7029 53.1905 39.4184 49.5716C36.1338 45.9526 34.4915 41.5582 34.4915 36.3883C34.4915 20.8784 43.2236 8.74914 60.6879 0L65.2542 8.59002ZM30.7627 8.59002C20.909 13.3623 15.9822 18.9696 15.9822 25.4121C20.2281 25.8894 23.7129 27.5795 26.4367 30.4826C29.1605 33.3858 30.5224 36.7462 30.5224 40.564C30.5224 44.6204 29.1805 48.0405 26.4968 50.8243C23.813 53.6081 20.4684 55 16.4629 55C11.9766 55 8.11128 53.1905 4.86676 49.5716C1.62224 45.9526 0 41.5582 0 36.3883C0 20.8784 8.69198 8.74914 26.0762 0L30.7627 8.59002Z" fill="#FF1B03"/>
</g>
<defs>
<clipPath id="clip0">
<rect width="65.3125" height="55" fill="white"/>
</clipPath>
</defs>
</svg>
