<svg width="62" height="62" viewBox="0 0 62 62" fill="none" xmlns="http://www.w3.org/2000/svg">
<path d="M54.5218 31.8134H51.9073C51.1285 29.5083 49.8315 27.3823 48.1228 25.5316L50.4478 18.6769C47.7061 17.5206 44.4344 18.6285 42.2148 21.0657C40.5935 20.22 38.8277 19.5486 36.9628 19.0662C35.3161 21.1457 32.7747 22.4843 29.9165 22.4843C27.1296 22.4843 24.639 21.2151 22.9898 19.2237C14.1623 21.7335 7.81348 28.6688 7.81348 36.8373C7.81348 47.1218 17.8717 55.459 30.2773 55.459C40.8396 55.459 49.6957 49.414 52.0957 41.2715H54.5212C55.8219 41.2715 56.8859 40.2076 56.8859 38.9075V34.1787C56.8865 32.8767 55.8219 31.8134 54.5218 31.8134Z" fill="#B0372B"/>
<path d="M38.9038 13.4932C38.9038 18.4575 34.8788 22.4832 29.9138 22.4832C24.9489 22.4832 20.9238 18.4569 20.9238 13.4932C20.9238 8.52883 24.9489 4.50317 29.9138 4.50317C34.8788 4.50317 38.9038 8.52883 38.9038 13.4932Z" fill="#F3412F"/>
<path d="M45.9471 50.1694C43.9488 51.7845 41.5909 53.0934 38.9795 54.0048L39.5524 56.3192C39.7576 57.1463 40.6014 57.6566 41.4285 57.4513L45.8801 56.3508C46.7072 56.1456 47.2168 55.3012 47.0122 54.4741L45.9471 50.1694Z" fill="#FFA997"/>
<path d="M37.4797 22.0883H37.4785C36.3389 21.8161 35.1963 21.614 34.0567 21.4677C32.8161 22.1137 31.4093 22.4838 29.9145 22.4838C28.46 22.4838 27.091 22.1304 25.8758 21.5173C24.7418 21.6828 23.624 21.906 22.5346 22.2067C22.0393 22.3437 21.7491 22.8558 21.8867 23.3512C22.0238 23.8466 22.5359 24.1368 23.0313 23.9997C25.2794 23.3785 27.6571 23.0648 30.0937 23.0648C32.3802 23.0648 34.7164 23.3407 37.0457 23.8981C37.5455 24.0171 38.047 23.709 38.1673 23.2099C38.2876 22.7101 37.9795 22.2079 37.4797 22.0883Z" fill="#FFA997"/>
<path d="M44.7201 31.6237C45.4381 31.6237 46.0202 31.0416 46.0202 30.3236C46.0202 29.6055 45.4381 29.0234 44.7201 29.0234C44.002 29.0234 43.4199 29.6055 43.4199 30.3236C43.4199 31.0416 44.002 31.6237 44.7201 31.6237Z" fill="#FFA997"/>
<path d="M30.7507 14.3727V16.2724C30.9535 16.2098 31.1023 16.1304 31.2015 16.0517C31.279 15.9872 31.331 15.9264 31.3732 15.8477C31.429 15.7435 31.4749 15.5984 31.4755 15.3523C31.473 15.051 31.4129 14.909 31.341 14.7943C31.2659 14.6821 31.1475 14.5742 30.9373 14.462C30.8803 14.4304 30.8183 14.4012 30.7507 14.3727ZM28.8907 10.1697C28.8777 10.1747 28.8634 10.1796 28.8504 10.1846C28.6563 10.259 28.5293 10.3501 28.4332 10.4469C28.2447 10.6372 28.1653 10.8976 28.1653 11.1059C28.1665 11.2901 28.1982 11.3855 28.2317 11.455C28.2676 11.5232 28.3141 11.5815 28.4096 11.6546C28.5107 11.7346 28.6774 11.8177 28.8901 11.8977V10.1697H28.8907ZM32.682 9.32467C32.8401 9.50509 32.9728 9.70349 33.0738 9.91863C33.2524 10.2912 33.3361 10.6992 33.3361 11.1065C33.3361 11.6199 32.9195 12.0365 32.4061 12.0365C31.8928 12.0365 31.4761 11.6205 31.4761 11.1065C31.4755 10.9478 31.4451 10.8251 31.3955 10.7203C31.3453 10.6155 31.2728 10.5219 31.1512 10.4258C31.057 10.3514 30.9249 10.2776 30.7507 10.215V12.4067C31.2449 12.5524 31.7613 12.7384 32.2393 13.0874C32.5307 13.302 32.8029 13.5872 32.9982 13.9437C33.2233 14.351 33.3373 14.8358 33.3361 15.3517C33.3373 15.8483 33.2313 16.3226 33.0106 16.7306C32.7911 17.1385 32.4644 17.4628 32.1011 17.6885C31.6807 17.947 31.225 18.097 30.7507 18.1795V18.257C30.7507 18.7704 30.3341 19.187 29.8207 19.187C29.3074 19.187 28.8907 18.771 28.8907 18.257V18.2006C28.2974 18.097 27.7654 17.8701 27.332 17.5204L32.0422 22.2306C35.3871 21.419 38.0004 18.7369 38.7134 15.3542L32.682 9.32467ZM30.504 7.59363C30.6571 7.75979 30.7501 7.98113 30.7501 8.22417V8.29361C31.1085 8.36305 31.4402 8.47031 31.744 8.61787C31.8159 8.65321 31.8866 8.69041 31.9554 8.73009L30.504 7.59363Z" fill="#F3412F"/>
<path d="M14.6047 50.1718L13.5408 54.4734C13.3362 55.3004 13.8458 56.1455 14.6735 56.3501L19.1239 57.4506C19.9516 57.6558 20.7954 57.1456 21 56.3185L21.5716 54.0071C18.9602 53.097 16.603 51.7863 14.6047 50.1718ZM10.641 27.7923C10.5611 27.7693 10.478 27.7538 10.3912 27.7538C9.40041 27.7545 8.52125 27.4159 7.91365 26.9088C7.30481 26.396 6.97745 25.7531 6.97621 25.0643C6.97621 24.5503 6.55957 24.1343 6.04621 24.1343C5.53285 24.1343 5.11621 24.5503 5.11621 25.0643C5.11497 26.3731 5.76039 27.5399 6.72325 28.3373C7.50383 28.9864 8.50017 29.4142 9.59819 29.5568C9.90881 28.9517 10.2579 28.3633 10.641 27.7923Z" fill="#FFA997"/>
<path d="M33.1737 9.83152V16.8575H32.029L28.5258 12.3775V16.8575H27.0851V9.83152H28.2199L31.7231 14.3017V9.83152H33.1737Z" fill="white"/>
<line x1="25.8008" y1="12.2273" x2="33.984" y2="12.2273" stroke="white" stroke-width="0.962733"/>
<line x1="25.8008" y1="14.634" x2="33.984" y2="14.634" stroke="white" stroke-width="0.962733"/>
</svg>
