<svg width="29" height="29" viewBox="0 0 29 29" fill="none" xmlns="http://www.w3.org/2000/svg">
<g clip-path="url(#clip0)">
<path d="M21.2004 16.6698C21.1449 16.6432 19.0679 15.6204 18.6988 15.4876C18.5481 15.4335 18.3867 15.3806 18.215 15.3806C17.9346 15.3806 17.699 15.5204 17.5154 15.7949C17.308 16.1033 16.6799 16.8375 16.4858 17.0568C16.4605 17.0858 16.4259 17.1204 16.4052 17.1204C16.3866 17.1204 16.0651 16.988 15.9678 16.9457C13.7398 15.9779 12.0486 13.6505 11.8167 13.258C11.7836 13.2016 11.7822 13.176 11.7819 13.176C11.7901 13.1461 11.865 13.071 11.9036 13.0322C12.0168 12.9203 12.1393 12.7728 12.2579 12.6301C12.3141 12.5624 12.3703 12.4947 12.4255 12.4309C12.5976 12.2307 12.6742 12.0753 12.763 11.8953L12.8095 11.8018C13.0263 11.371 12.8411 11.0075 12.7813 10.8901C12.7322 10.7919 11.8552 8.67531 11.7619 8.45294C11.5377 7.91635 11.2414 7.6665 10.8297 7.6665C10.7915 7.6665 10.8297 7.6665 10.6695 7.67326C10.4744 7.68149 9.41207 7.82135 8.94235 8.11744C8.44424 8.43148 7.60156 9.43251 7.60156 11.193C7.60156 12.7774 8.60704 14.2734 9.03874 14.8424C9.04947 14.8567 9.06917 14.8859 9.09775 14.9277C10.751 17.3421 12.812 19.1314 14.9013 19.966C16.9127 20.7695 17.8652 20.8624 18.4067 20.8624C18.4068 20.8624 18.4068 20.8624 18.4068 20.8624C18.6343 20.8624 18.8165 20.8445 18.9771 20.8287L19.0791 20.819C19.7739 20.7574 21.3009 19.9661 21.6482 19.0009C21.9219 18.2406 21.994 17.41 21.812 17.1085C21.6873 16.9036 21.4724 16.8004 21.2004 16.6698Z" fill="#3F3F3F"/>
<path d="M14.617 0.298584C6.90103 0.298584 0.623614 6.52883 0.623614 14.1868C0.623614 16.6637 1.28647 19.0882 2.54216 21.2102L0.138729 28.2998C0.0939591 28.432 0.127259 28.5781 0.225032 28.6777C0.295609 28.7497 0.391347 28.7886 0.489119 28.7886C0.526582 28.7886 0.564322 28.7829 0.601137 28.7712L7.99374 26.4221C10.0167 27.5029 12.3031 28.0735 14.6171 28.0735C22.3323 28.0736 28.6091 21.844 28.6091 14.1868C28.6091 6.52883 22.3323 0.298584 14.617 0.298584ZM14.617 25.1805C12.4397 25.1805 10.3307 24.5518 8.51793 23.3623C8.45698 23.3222 8.38621 23.3017 8.31499 23.3017C8.27734 23.3017 8.2396 23.3074 8.20288 23.3191L4.49964 24.4962L5.69511 20.9693C5.73378 20.8551 5.71444 20.7292 5.64322 20.6319C4.26275 18.7457 3.53302 16.5171 3.53302 14.1868C3.53302 8.12408 8.50526 3.19161 14.6169 3.19161C20.7278 3.19161 25.6995 8.12408 25.6995 14.1868C25.6996 20.2488 20.728 25.1805 14.617 25.1805Z" fill="#3F3F3F"/>
</g>
<defs>
<clipPath id="clip0">
<rect width="28.49" height="28.49" fill="white" transform="translate(0.119141 0.298584)"/>
</clipPath>
</defs>
</svg>
