<svg width="28" height="29" viewBox="0 0 28 29" fill="none" xmlns="http://www.w3.org/2000/svg">
<g clip-path="url(#clip0)">
<path d="M20.7184 16.7733C20.6639 16.7471 18.6226 15.7419 18.2599 15.6114C18.1118 15.5582 17.9532 15.5063 17.7844 15.5063C17.5088 15.5063 17.2772 15.6436 17.0969 15.9134C16.893 16.2165 16.2757 16.9381 16.085 17.1536C16.0601 17.1821 16.0261 17.2161 16.0057 17.2161C15.9874 17.2161 15.6715 17.086 15.5759 17.0444C13.3862 16.0933 11.7241 13.8059 11.4962 13.4202C11.4636 13.3647 11.4622 13.3395 11.462 13.3395C11.47 13.3102 11.5436 13.2364 11.5816 13.1983C11.6928 13.0883 11.8132 12.9433 11.9298 12.803C11.985 12.7365 12.0402 12.67 12.0945 12.6073C12.2636 12.4105 12.3389 12.2578 12.4262 12.0809L12.4719 11.989C12.685 11.5656 12.503 11.2084 12.4442 11.093C12.3959 10.9964 11.534 8.91626 11.4423 8.69771C11.222 8.17035 10.9308 7.9248 10.5262 7.9248C10.4886 7.9248 10.5262 7.9248 10.3687 7.93144C10.177 7.93953 9.13288 8.07699 8.67124 8.36799C8.1817 8.67662 7.35352 9.66044 7.35352 11.3906C7.35352 12.9478 8.3417 14.4181 8.76597 14.9773C8.77652 14.9914 8.79588 15.02 8.82397 15.0611C10.4488 17.434 12.4743 19.1925 14.5277 20.0128C16.5045 20.8024 17.4406 20.8937 17.9728 20.8937C17.9729 20.8937 17.9729 20.8937 17.9729 20.8937C18.1965 20.8937 18.3755 20.8762 18.5334 20.8606L18.6336 20.8511C19.3165 20.7905 20.8172 20.0129 21.1586 19.0643C21.4275 18.3171 21.4984 17.5007 21.3195 17.2044C21.197 17.003 20.9858 16.9016 20.7184 16.7733Z" fill="white"/>
<path d="M14.2485 0.683594C6.66525 0.683594 0.495797 6.80668 0.495797 14.333C0.495797 16.7672 1.14725 19.15 2.38134 21.2355L0.0192516 28.2032C-0.0247484 28.3331 0.00797888 28.4768 0.10407 28.5746C0.173433 28.6454 0.267524 28.6836 0.363615 28.6836C0.400433 28.6836 0.437524 28.6781 0.473706 28.6665L7.73916 26.3578C9.72734 27.42 11.9744 27.9808 14.2486 27.9808C21.8312 27.9809 28 21.8584 28 14.333C28 6.80668 21.8312 0.683594 14.2485 0.683594ZM14.2485 25.1376C12.1086 25.1376 10.036 24.5197 8.25434 23.3506C8.19443 23.3112 8.12489 23.291 8.05489 23.291C8.01789 23.291 7.9808 23.2967 7.94471 23.3081L4.30516 24.465L5.48007 20.9988C5.51807 20.8866 5.49907 20.7629 5.42907 20.6672C4.07234 18.8134 3.35516 16.6231 3.35516 14.333C3.35516 8.3745 8.24189 3.52687 14.2484 3.52687C20.2543 3.52687 25.1404 8.3745 25.1404 14.333C25.1405 20.2907 20.2544 25.1376 14.2485 25.1376Z" fill="white"/>
</g>
<defs>
<clipPath id="clip0">
<rect width="28" height="28" fill="white" transform="translate(0 0.683594)"/>
</clipPath>
</defs>
</svg>
